<svg width="1920" height="1053" viewBox="0 0 1920 1053" fill="none" xmlns="http://www.w3.org/2000/svg">
<g clip-path="url(#clip0_3_905)">
<path d="M1920 0H0V1053H1920V0Z" fill="#09B7CC"/>
<path d="M211.2 0H0V193.05H211.2V0Z" fill="#09B7CC"/>
<path d="M403.2 0H192V193.05H403.2V0Z" fill="#13B8CB"/>
<path d="M211.2 175.5H0V368.55H211.2V175.5Z" fill="#1BBACA"/>
<path d="M595.2 0H384V193.05H595.2V0Z" fill="#21BBCA"/>
<path d="M403.2 175.5H192V368.55H403.2V175.5Z" fill="#27BCC9"/>
<path d="M211.2 351H0V544.05H211.2V351Z" fill="#2DBDC8"/>
<path d="M787.2 0H576V193.05H787.2V0Z" fill="#32BEC7"/>
<path d="M595.2 175.5H384V368.55H595.2V175.5Z" fill="#37C0C6"/>
<path d="M403.2 351H192V544.05H403.2V351Z" fill="#3BC1C5"/>
<path d="M211.2 526.5H0V719.55H211.2V526.5Z" fill="#40C2C4"/>
<path d="M979.2 0H768V193.05H979.2V0Z" fill="#44C3C3"/>
<path d="M787.2 175.5H576V368.55H787.2V175.5Z" fill="#48C4C2"/>
<path d="M595.2 351H384V544.05H595.2V351Z" fill="#4DC5C2"/>
<path d="M403.2 526.5H192V719.55H403.2V526.5Z" fill="#51C7C1"/>
<path d="M211.2 702H0V895.05H211.2V702Z" fill="#55C8C0"/>
<path d="M1171.2 0H960V193.05H1171.2V0Z" fill="#59C9BF"/>
<path d="M979.2 175.5H768V368.55H979.2V175.5Z" fill="#5DCABE"/>
<path d="M787.2 351H576V544.05H787.2V351Z" fill="#61CBBD"/>
<path d="M595.2 526.5H384V719.55H595.2V526.5Z" fill="#64CCBC"/>
<path d="M403.2 702H192V895.05H403.2V702Z" fill="#68CDBB"/>
<path d="M211.2 877.5H0V1070.55H211.2V877.5Z" fill="#6CCEBB"/>
<path d="M1363.2 0H1152V193.05H1363.2V0Z" fill="#70CFBA"/>
<path d="M1171.2 175.5H960V368.55H1171.2V175.5Z" fill="#73D0B9"/>
<path d="M979.2 351H768V544.05H979.2V351Z" fill="#77D1B8"/>
<path d="M787.2 526.5H576V719.55H787.2V526.5Z" fill="#7BD2B8"/>
<path d="M595.2 702H384V895.05H595.2V702Z" fill="#7ED3B7"/>
<path d="M403.2 877.5H192V1070.55H403.2V877.5Z" fill="#82D4B6"/>
<path d="M1555.2 0H1344V193.05H1555.2V0Z" fill="#86D5B6"/>
<path d="M1363.2 175.5H1152V368.55H1363.2V175.5Z" fill="#89D6B5"/>
<path d="M1171.2 351H960V544.05H1171.2V351Z" fill="#8DD7B5"/>
<path d="M979.2 526.5H768V719.55H979.2V526.5Z" fill="#90D8B4"/>
<path d="M787.2 702H576V895.05H787.2V702Z" fill="#94D8B4"/>
<path d="M595.2 877.5H384V1070.55H595.2V877.5Z" fill="#97D9B3"/>
<path d="M1747.2 0H1536V193.05H1747.2V0Z" fill="#9BDAB3"/>
<path d="M1555.2 175.5H1344V368.55H1555.2V175.5Z" fill="#9EDBB2"/>
<path d="M1363.2 351H1152V544.05H1363.2V351Z" fill="#A2DCB2"/>
<path d="M1171.2 526.5H960V719.55H1171.2V526.5Z" fill="#A5DDB2"/>
<path d="M979.2 702H768V895.05H979.2V702Z" fill="#A8DEB2"/>
<path d="M787.2 877.5H576V1070.55H787.2V877.5Z" fill="#ACDEB2"/>
<path d="M1939.2 0H1728V193.05H1939.2V0Z" fill="#AFDFB1"/>
<path d="M1747.2 175.5H1536V368.55H1747.2V175.5Z" fill="#B2E0B1"/>
<path d="M1555.2 351H1344V544.05H1555.2V351Z" fill="#B6E1B1"/>
<path d="M1363.2 526.5H1152V719.55H1363.2V526.5Z" fill="#B9E2B1"/>
<path d="M1171.2 702H960V895.05H1171.2V702Z" fill="#BCE2B2"/>
<path d="M979.2 877.5H768V1070.55H979.2V877.5Z" fill="#C0E3B2"/>
<path d="M1939.2 175.5H1728V368.55H1939.2V175.5Z" fill="#C3E4B2"/>
<path d="M1747.2 351H1536V544.05H1747.2V351Z" fill="#C6E5B2"/>
<path d="M1555.2 526.5H1344V719.55H1555.2V526.5Z" fill="#C9E5B3"/>
<path d="M1363.2 702H1152V895.05H1363.2V702Z" fill="#CDE6B3"/>
<path d="M1171.2 877.5H960V1070.55H1171.2V877.5Z" fill="#D0E7B3"/>
<path d="M1939.2 351H1728V544.05H1939.2V351Z" fill="#D3E8B4"/>
<path d="M1747.2 526.5H1536V719.55H1747.2V526.5Z" fill="#D6E8B4"/>
<path d="M1555.2 702H1344V895.05H1555.2V702Z" fill="#D9E9B5"/>
<path d="M1363.2 877.5H1152V1070.55H1363.2V877.5Z" fill="#DCEAB6"/>
<path d="M1939.2 526.5H1728V719.55H1939.2V526.5Z" fill="#DFEAB6"/>
<path d="M1747.2 702H1536V895.05H1747.2V702Z" fill="#E2EBB7"/>
<path d="M1555.2 877.5H1344V1070.55H1555.2V877.5Z" fill="#E5ECB8"/>
<path d="M1939.2 702H1728V895.05H1939.2V702Z" fill="#E8EDB9"/>
<path d="M1747.2 877.5H1536V1070.55H1747.2V877.5Z" fill="#EBEDBA"/>
<path d="M1939.2 877.5H1728V1070.55H1939.2V877.5Z" fill="#EEEEBB"/>
</g>
<defs>
<clipPath id="clip0_3_905">
<rect width="1920" height="1053" fill="white"/>
</clipPath>
</defs>
</svg>
