<svg  viewBox="0 0 480 416" fill="current" xmlns="http://www.w3.org/2000/svg">
<path d="M0 304C0.0132359 316.726 5.07462 328.928 14.0735 337.927C23.0724 346.925 35.2737 351.987 48 352H181.88L177.88 384H128C123.757 384 119.687 385.686 116.686 388.686C113.686 391.687 112 395.757 112 400C112 404.243 113.686 408.313 116.686 411.314C119.687 414.314 123.757 416 128 416H352C356.243 416 360.313 414.314 363.314 411.314C366.314 408.313 368 404.243 368 400C368 395.757 366.314 391.687 363.314 388.686C360.313 385.686 356.243 384 352 384H302.12L298.12 352H432C444.726 351.987 456.928 346.925 465.927 337.927C474.925 328.928 479.987 316.726 480 304V256H0V304ZM240 288C243.165 288 246.258 288.938 248.889 290.696C251.52 292.455 253.571 294.953 254.782 297.877C255.993 300.801 256.31 304.018 255.693 307.121C255.075 310.225 253.551 313.076 251.314 315.314C249.076 317.551 246.225 319.075 243.121 319.693C240.018 320.31 236.801 319.993 233.877 318.782C230.953 317.571 228.455 315.52 226.696 312.889C224.938 310.258 224 307.165 224 304C224 299.757 225.686 295.687 228.686 292.686C231.687 289.686 235.757 288 240 288ZM480 48C479.987 35.2737 474.925 23.0724 465.927 14.0735C456.928 5.07462 444.726 0.0132359 432 0H48C35.2737 0.0132359 23.0724 5.07462 14.0735 14.0735C5.07462 23.0724 0.0132359 35.2737 0 48V240H480V48Z" />
</svg>
