<svg viewBox="0 0 513 513" fill="current" xmlns="http://www.w3.org/2000/svg">
<path d="M428.54 224.59H288.54C275.81 224.59 263.601 219.533 254.599 210.531C245.597 201.529 240.54 189.32 240.54 176.59V36.5897C240.54 35.5289 240.119 34.5114 239.368 33.7613C238.618 33.0111 237.601 32.5897 236.54 32.5897H144.54C127.566 32.5897 111.288 39.3326 99.2852 51.3349C87.2829 63.3372 80.54 79.6159 80.54 96.5897V416.59C80.54 433.564 87.2829 449.842 99.2852 461.845C111.288 473.847 127.566 480.59 144.54 480.59H368.54C385.514 480.59 401.793 473.847 413.795 461.845C425.797 449.842 432.54 433.564 432.54 416.59V228.59C432.54 227.529 432.119 226.511 431.368 225.761C430.618 225.011 429.601 224.59 428.54 224.59Z" />
<path d="M419.76 189.18L275.95 45.3697C275.67 45.0917 275.315 44.9025 274.928 44.8261C274.541 44.7496 274.14 44.7892 273.776 44.9399C273.411 45.0905 273.1 45.3456 272.88 45.6729C272.66 46.0003 272.542 46.3853 272.54 46.7797V176.59C272.54 180.833 274.226 184.903 277.226 187.903C280.227 190.904 284.297 192.59 288.54 192.59H418.35C418.744 192.588 419.129 192.47 419.457 192.25C419.784 192.03 420.039 191.718 420.19 191.354C420.341 190.99 420.38 190.589 420.304 190.202C420.227 189.815 420.038 189.459 419.76 189.18Z" />
</svg>
