<svg width="26" height="20" viewBox="0 0 26 20" fill="none" xmlns="http://www.w3.org/2000/svg">
<path d="M0 16.8182C0 17.6621 0.335226 18.4714 0.931933 19.0681C1.52864 19.6648 2.33795 20 3.18182 20H22.2727C23.1166 20 23.9259 19.6648 24.5226 19.0681C25.1193 18.4714 25.4545 17.6621 25.4545 16.8182V8.06818H0V16.8182ZM3.75 12.5C3.75 12.0479 3.92959 11.6144 4.24925 11.2947C4.56891 10.975 5.00247 10.7955 5.45455 10.7955H8.18182C8.63389 10.7955 9.06745 10.975 9.38711 11.2947C9.70678 11.6144 9.88636 12.0479 9.88636 12.5V13.6364C9.88636 14.0884 9.70678 14.522 9.38711 14.8417C9.06745 15.1613 8.63389 15.3409 8.18182 15.3409H5.45455C5.00247 15.3409 4.56891 15.1613 4.24925 14.8417C3.92959 14.522 3.75 14.0884 3.75 13.6364V12.5ZM22.2727 0H3.18182C2.33795 0 1.52864 0.335226 0.931933 0.931933C0.335226 1.52864 0 2.33795 0 3.18182V4.65909H25.4545V3.18182C25.4545 2.33795 25.1193 1.52864 24.5226 0.931933C23.9259 0.335226 23.1166 0 22.2727 0Z" fill="black"/>
</svg>
