<svg width="100%" height="100%" viewBox="0 0 513 513" fill="current" stroke="current" xmlns="http://www.w3.org/2000/svg">
<path d="M262.264 101.775C260.776 100.35 258.795 99.5555 256.734 99.5555C254.674 99.5555 252.693 100.35 251.204 101.775L67.1045 277.645C66.3226 278.392 65.7006 279.291 65.2761 280.286C64.8515 281.282 64.6333 282.353 64.6345 283.435L64.6045 448.495C64.6045 456.981 67.9759 465.121 73.9771 471.122C79.9782 477.123 88.1176 480.495 96.6045 480.495H192.704C196.948 480.495 201.018 478.809 204.018 475.808C207.019 472.808 208.704 468.738 208.704 464.495V328.495C208.704 326.373 209.547 324.338 211.048 322.838C212.548 321.337 214.583 320.495 216.704 320.495H296.704C298.826 320.495 300.861 321.337 302.361 322.838C303.862 324.338 304.704 326.373 304.704 328.495V464.495C304.704 468.738 306.39 472.808 309.391 475.808C312.391 478.809 316.461 480.495 320.704 480.495H416.764C425.251 480.495 433.391 477.123 439.392 471.122C445.393 465.121 448.764 456.981 448.764 448.495V283.435C448.766 282.353 448.547 281.282 448.123 280.286C447.698 279.291 447.076 278.392 446.294 277.645L262.264 101.775Z"/>
<path d="M491.614 244.645L416.814 173.085V64.4946C416.814 60.2511 415.129 56.1814 412.128 53.1809C409.128 50.1803 405.058 48.4946 400.814 48.4946H352.814C348.571 48.4946 344.501 50.1803 341.501 53.1809C338.5 56.1814 336.814 60.2511 336.814 64.4946V96.4946L278.894 41.1146C273.474 35.6346 265.414 32.4946 256.704 32.4946C248.024 32.4946 239.984 35.6346 234.564 41.1246L21.8645 244.625C15.6445 250.625 14.8645 260.495 20.5245 266.995C21.9458 268.635 23.6861 269.97 25.6395 270.916C27.5928 271.863 29.7184 272.402 31.8869 272.502C34.0553 272.601 36.2213 272.258 38.2529 271.493C40.2845 270.729 42.1394 269.559 43.7045 268.055L251.204 69.7746C252.693 68.3504 254.674 67.5555 256.734 67.5555C258.795 67.5555 260.776 68.3504 262.264 69.7746L469.784 268.055C472.841 270.986 476.936 272.586 481.17 272.503C485.405 272.421 489.434 270.663 492.374 267.615C498.514 261.255 498.004 250.755 491.614 244.645Z"/>
</svg>
