<svg width="100%" height="100%" viewBox="0 0 21 12" fill="none" stroke="currentFill" xmlns="http://www.w3.org/2000/svg">
<path d="M7.69935 10.37H5.21288C4.09555 10.37 3.02399 9.8764 2.23392 8.9978C1.44386 8.11919 1 6.92754 1 5.685C1 4.44246 1.44386 3.25081 2.23392 2.3722C3.02399 1.4936 4.09555 1 5.21288 1H7.6445M12.6113 1H15.0429C16.1602 1 17.2318 1.4936 18.0219 2.3722C18.8119 3.25081 19.2558 4.44246 19.2558 5.685C19.2558 6.92754 18.8119 8.11919 18.0219 8.9978C17.2318 9.8764 16.1602 10.37 15.0429 10.37H12.5564M6.31305 5.685H14.0305" fill="none" stroke-width="2" stroke-linecap="square" stroke-linejoin="round"/>
</svg>
