<svg  viewBox="0 0 480 352" fill="current" xmlns="http://www.w3.org/2000/svg">
<path d="M319.999 176C299.439 176 279.559 166.82 263.999 150.16C248.869 133.91 239.629 112.24 237.999 89.16C236.259 64.54 243.769 41.9 259.139 25.4C274.509 8.9 295.999 0 319.999 0C343.829 0 365.379 9.06 380.699 25.52C396.169 42.14 403.699 64.74 401.959 89.15C400.289 112.26 391.059 133.92 375.959 150.15C360.439 166.82 340.569 176 319.999 176ZM451.829 352H188.179C183.94 352.023 179.752 351.073 175.938 349.223C172.124 347.373 168.785 344.673 166.179 341.33C163.414 337.706 161.504 333.504 160.594 329.038C159.683 324.572 159.794 319.957 160.919 315.54C169.339 281.73 190.199 253.69 221.239 234.46C248.789 217.4 283.859 208 319.999 208C356.849 208 390.999 217 418.709 234.05C449.819 253.18 470.709 281.38 479.089 315.6C480.2 320.02 480.299 324.635 479.378 329.099C478.457 333.562 476.539 337.761 473.769 341.38C471.165 344.707 467.834 347.394 464.031 349.235C460.228 351.076 456.054 352.022 451.829 352ZM130.999 180C95.8089 180 64.8689 147.28 61.9989 107.07C60.5789 86.47 66.9989 67.42 79.9989 53.45C92.8589 39.62 110.999 32 130.999 32C150.999 32 168.999 39.66 181.929 53.57C195.029 67.65 201.429 86.66 199.929 107.09C197.059 147.29 166.129 180 130.999 180ZM196.659 211.45C179.069 202.85 156.239 198.55 131.009 198.55C101.549 198.55 72.9389 206.23 50.4389 220.17C24.9289 236 7.76886 259.05 0.838863 286.88C-0.175286 290.883 -0.271207 295.063 0.558276 299.109C1.38776 303.154 3.12117 306.959 5.62886 310.24C8.00834 313.295 11.0567 315.763 14.5395 317.455C18.0223 319.147 21.8468 320.018 25.7189 320H136.719C138.592 320 140.406 319.342 141.845 318.141C143.283 316.941 144.254 315.273 144.589 313.43C144.699 312.8 144.839 312.17 144.999 311.55C153.479 277.49 173.349 248.71 202.709 227.73C203.789 226.952 204.657 225.916 205.236 224.717C205.814 223.518 206.085 222.194 206.022 220.864C205.959 219.535 205.566 218.242 204.878 217.102C204.189 215.963 203.227 215.014 202.079 214.34C200.509 213.42 198.709 212.45 196.659 211.45Z" />
</svg>
