<svg width="22" height="20" viewBox="0 0 40 34" fill="none" stroke="currentFill" xmlns="http://www.w3.org/2000/svg">
<path d="M24.5 24.5V28.25C24.5 29.2446 24.1049 30.1984 23.4017 30.9017C22.6984 31.6049 21.7446 32 20.75 32H5.75C4.75544 32 3.80161 31.6049 3.09835 30.9017C2.39509 30.1984 2 29.2446 2 28.25V5.75C2 4.75544 2.39509 3.80161 3.09835 3.09835C3.80161 2.39509 4.75544 2 5.75 2H20C22.0709 2 24.5 3.67906 24.5 5.75V9.5M30.5 24.5L38 17L30.5 9.5M12.5 17H36.5" fill="none" stroke-width="3" stroke-linecap="round" stroke-linejoin="round"/>
</svg>
