<svg viewBox="0 0 512 512" fill="current" xmlns="http://www.w3.org/2000/svg">
<path d="M425.7 118.25C381.541 74.3549 322.052 49.3393 259.794 48.4858C197.536 47.6323 137.383 71.0076 92.0369 113.676C46.6912 156.344 19.7026 214.965 16.77 277.159C13.8374 339.354 35.1905 400.254 76.3202 447L76.5002 447.2C76.8302 447.55 77.1402 447.91 77.5002 448.25C78.2402 449.09 79.0802 450.04 80.0702 451.03C83.9527 455.157 88.6452 458.438 93.8541 460.667C99.0629 462.897 104.676 464.027 110.342 463.988C116.008 463.949 121.604 462.74 126.782 460.438C131.959 458.136 136.605 454.79 140.43 450.61C155.147 434.616 173.021 421.849 192.924 413.115C212.827 404.382 234.326 399.873 256.06 399.873C277.795 399.873 299.293 404.382 319.196 413.115C339.099 421.849 356.974 434.616 371.69 450.61C375.543 454.812 380.227 458.169 385.445 460.467C390.663 462.765 396.301 463.954 402.002 463.96C407.703 463.966 413.344 462.787 418.566 460.5C423.788 458.212 428.479 454.865 432.34 450.67L435.55 447.17L435.73 446.97C476.256 401.209 497.787 341.705 495.928 280.607C494.07 219.509 468.962 161.424 425.73 118.21L425.7 118.25ZM240 128C240 123.757 241.686 119.687 244.686 116.686C247.687 113.686 251.757 112 256 112C260.244 112 264.313 113.686 267.314 116.686C270.314 119.687 272 123.757 272 128V160C272 164.243 270.314 168.313 267.314 171.314C264.313 174.314 260.244 176 256 176C251.757 176 247.687 174.314 244.686 171.314C241.686 168.313 240 164.243 240 160V128ZM128 304H96.0002C91.7567 304 87.687 302.314 84.6865 299.314C81.6859 296.313 80.0002 292.243 80.0002 288C80.0002 283.757 81.6859 279.687 84.6865 276.686C87.687 273.686 91.7567 272 96.0002 272H128C132.244 272 136.313 273.686 139.314 276.686C142.314 279.687 144 283.757 144 288C144 292.243 142.314 296.313 139.314 299.314C136.313 302.314 132.244 304 128 304ZM176.8 208.8C173.8 211.798 169.732 213.483 165.49 213.483C161.249 213.483 157.18 211.798 154.18 208.8L131.55 186.18C128.549 183.179 126.863 179.109 126.863 174.865C126.863 170.621 128.549 166.551 131.55 163.55C134.551 160.549 138.621 158.863 142.865 158.863C147.109 158.863 151.179 160.549 154.18 163.55L176.8 186.18C179.798 189.18 181.483 193.248 181.483 197.49C181.483 201.732 179.798 205.8 176.8 208.8ZM326.1 231.9L278.6 307.4C276.657 310.093 274.293 312.457 271.6 314.4C265.098 318.936 257.07 320.725 249.258 319.378C241.445 318.031 234.479 313.657 229.871 307.206C225.263 300.755 223.385 292.747 224.645 284.921C225.905 277.094 230.201 270.079 236.6 265.4L312.1 217.9C313.816 216.704 315.858 216.062 317.95 216.062C320.042 216.062 322.084 216.704 323.8 217.9C325.956 219.456 327.407 221.802 327.838 224.426C328.269 227.049 327.644 229.736 326.1 231.9ZM357.82 208.8C354.795 211.674 350.767 213.252 346.595 213.199C342.423 213.146 338.437 211.464 335.486 208.514C332.536 205.564 330.855 201.577 330.801 197.405C330.748 193.233 332.326 189.205 335.2 186.18L357.82 163.55C360.821 160.549 364.891 158.863 369.135 158.863C373.379 158.863 377.449 160.549 380.45 163.55C383.451 166.551 385.137 170.621 385.137 174.865C385.137 179.109 383.451 183.179 380.45 186.18L357.82 208.8ZM416 304H384C379.757 304 375.687 302.314 372.686 299.314C369.686 296.313 368 292.243 368 288C368 283.757 369.686 279.687 372.686 276.686C375.687 273.686 379.757 272 384 272H416C420.244 272 424.313 273.686 427.314 276.686C430.314 279.687 432 283.757 432 288C432 292.243 430.314 296.313 427.314 299.314C424.313 302.314 420.244 304 416 304Z"/>
</svg>
